<?xml version="1.0" encoding="UTF-8"?>
<svg width="80px" height="80px" viewBox="0 0 80 80" version="1.1" xmlns="http://www.w3.org/2000/svg" xmlns:xlink="http://www.w3.org/1999/xlink">
    <!-- Generator: Sketch 50.2 (55047) - http://www.bohemiancoding.com/sketch -->
    <title>仓储监测</title>
    <desc>Created with Sketch.</desc>
    <defs>
        <rect id="path-1" x="0" y="0" width="80" height="80"></rect>
        <linearGradient x1="100%" y1="50%" x2="0%" y2="50%" id="linearGradient-3">
            <stop stop-color="#106AFF" offset="0%"></stop>
            <stop stop-color="#C0CDFF" offset="100%"></stop>
        </linearGradient>
        <linearGradient x1="100%" y1="50%" x2="0%" y2="50%" id="linearGradient-4">
            <stop stop-color="#B3C9FE" offset="0%"></stop>
            <stop stop-color="#EDF3FF" offset="100%"></stop>
        </linearGradient>
    </defs>
    <g id="仓储监测" stroke="none" stroke-width="1" fill="none" fill-rule="evenodd">
        <g>
            <mask id="mask-2" fill="white">
                <use xlink:href="#path-1"></use>
            </mask>
            <g id="Mask"></g>
            <g id="02包裹、发货" mask="url(#mask-2)">
                <g transform="translate(10.000000, 10.000000)">
                    <path d="M-2.27373675e-13,57.5 C-2.27373675e-13,58.875 1.125,60 2.5,60 L57.5,60 C58.875,60 60,58.875 60,57.5 L60,15 L-2.27373675e-13,15 L-2.27373675e-13,57.5 Z M34.9375,35 L50,35 L50,40 L34.9375,40 L34.9375,35 Z M29.9375,45 L50,45 L50,50 L29.9375,50 L29.9375,45 Z" id="Shape" fill="url(#linearGradient-3)" fill-rule="nonzero"></path>
                    <path d="M28.6902287,12.1875 L0,12.1875 L5.98752599,1.8890625 C6.92307692,0.6703125 8.35758836,0 9.91683992,0 L28.6902287,0 L28.6902287,12.1875 Z M60,12.1875 L31.3097713,12.1875 L31.3097713,0 L50.0831601,0 C51.6424116,0 53.0769231,0.73125 54.012474,1.8890625 L60,12.1875 Z" id="Combined-Shape" fill="url(#linearGradient-4)" fill-rule="evenodd"></path>
                </g>
            </g>
        </g>
    </g>
</svg>