<?xml version="1.0" encoding="UTF-8"?>
<svg width="80px" height="80px" viewBox="0 0 80 80" version="1.1" xmlns="http://www.w3.org/2000/svg" xmlns:xlink="http://www.w3.org/1999/xlink">
    <!-- Generator: Sketch 50.2 (55047) - http://www.bohemiancoding.com/sketch -->
    <title>冷链检测</title>
    <desc>Created with Sketch.</desc>
    <defs>
        <rect id="path-1" x="0" y="0" width="80" height="80"></rect>
        <linearGradient x1="100%" y1="50%" x2="0%" y2="50%" id="linearGradient-3">
            <stop stop-color="#B3C9FE" offset="0%"></stop>
            <stop stop-color="#EDF3FF" offset="100%"></stop>
        </linearGradient>
        <polygon id="path-4" points="0.0145668478 0.154437086 48.7395543 0.154437086 48.7395543 39.7443179 0.0145668478 39.7443179"></polygon>
        <linearGradient x1="100%" y1="50%" x2="0%" y2="50%" id="linearGradient-6">
            <stop stop-color="#106AFF" offset="0%"></stop>
            <stop stop-color="#C0CDFF" offset="100%"></stop>
        </linearGradient>
    </defs>
    <g id="冷链检测" stroke="none" stroke-width="1" fill="none" fill-rule="evenodd">
        <g>
            <mask id="mask-2" fill="white">
                <use xlink:href="#path-1"></use>
            </mask>
            <g id="Mask"></g>
            <g id="Group" mask="url(#mask-2)">
                <g transform="translate(1.000000, 17.000000)">
                    <path d="M22.2826087,39 C22.2826087,33.7588733 17.9022892,29.5090909 12.5001749,29.5090909 C7.09806065,29.5090909 2.7173913,33.7588733 2.7173913,39 L2.10908814,39 C0.943739544,39 0,38.0869302 0,36.962708 L0,25.6499276 C0,25.4311686 0.0366632629,25.2126719 0.107817151,25.0054541 L5.62387294,11.3930807 C5.91093271,10.5623734 6.71643818,10 7.62514394,10 L22.8911834,10 C24.056532,10 25,10.9117583 25,12.0388658 L25,39 L22.2826087,39 Z M17.3913043,13.1636364 L8.68345303,13.1636364 L3.80434783,24.7636364 L17.3913043,24.7636364 L17.3913043,13.1636364 Z" id="Combined-Shape" fill="url(#linearGradient-3)"></path>
                    <g id="Group-7" stroke-width="1" fill="none" transform="translate(27.000000, 0.000000)">
                        <mask id="mask-5" fill="white">
                            <use xlink:href="#path-4"></use>
                        </mask>
                        <g id="Clip-6"></g>
                        <path d="M37.2647059,39.5899338 C37.1293023,34.4067202 32.8891411,30.2456159 27.6798853,30.2456159 C22.4706296,30.2456159 18.2327915,34.4067202 18.0974629,39.5899338 L0,39.5899338 L0,3.40741722 C0,1.52503311 1.53497826,0 3.42707065,0 L45.2983696,0 C47.190462,0 48.7251739,1.52503311 48.7251739,3.40741722 L48.7251739,36.1806623 C48.7251739,38.0630464 47.190462,39.5899338 45.2983696,39.5899338 L37.2647059,39.5899338 Z M25.1714135,15.3616621 L25.1714135,10.7833823 L27.3620575,8.58132108 C27.6276926,8.31532455 27.6257826,7.88892338 27.3619656,7.62474743 C27.0963093,7.3587297 26.6704578,7.36053026 26.4066916,7.62465535 L25.1714136,8.86161402 L25.1714136,6.38148121 C25.1714136,6.01590315 24.8689615,5.70989613 24.4958679,5.70989613 C24.1201731,5.70989613 23.8203221,6.01057501 23.8203221,6.38148121 L23.8203221,8.88565137 L22.5850441,7.6486927 C22.3212779,7.38456761 21.8954265,7.38276705 21.6297702,7.64878478 C21.3659532,7.91296073 21.3640431,8.3393619 21.6296782,8.60535843 L23.820322,10.8074197 L23.820322,15.3616619 L19.8608028,13.0725222 L19.0516749,10.071757 C18.9544457,9.70839901 18.5847182,9.49685484 18.2243374,9.59354995 C17.8614442,9.6909192 17.6500757,10.0611194 17.7466208,10.421921 L18.1987639,12.111638 L16.0538242,10.8715716 C15.7376545,10.6887825 15.3217786,10.7980666 15.1352318,11.1216147 C14.9473845,11.4474186 15.0575007,11.8577899 15.3782785,12.043243 L17.5440069,13.2953281 L15.8565857,13.7480864 C15.4962744,13.8447629 15.2817915,14.2131625 15.3790284,14.5765495 C15.4755921,14.9374205 15.8434096,15.1522775 16.2062739,15.0549161 L19.2060457,14.2562123 L23.1447764,16.5333335 L19.1852572,18.8224732 L16.1854853,18.0237693 C15.8226209,17.9264078 15.4548035,18.1412648 15.3582397,18.5021358 C15.2610028,18.8655228 15.4754857,19.2339225 15.8357971,19.330599 L17.5232182,19.7833573 L15.3782785,21.0234237 C15.0621088,21.2062127 14.948685,21.6215038 15.1352318,21.9450519 C15.3230792,22.2708558 15.7330465,22.3805482 16.0538242,22.1950951 L18.2195526,20.94301 L17.7674095,22.632727 C17.6708643,22.9935286 17.8822328,23.3637288 18.2451261,23.461098 C18.6055068,23.5577932 18.9752344,23.346249 19.0724636,22.982891 L19.8815916,19.982126 L23.820322,17.705005 L23.820322,22.3073217 L21.6296782,24.5519373 C21.3640431,24.8179339 21.3659532,25.244335 21.6297702,25.508511 C21.8954265,25.7745287 22.3212779,25.7727282 22.5850441,25.5086031 L23.8203221,24.2716444 L23.8203221,26.6851855 C23.8203221,27.0507635 24.1227743,27.3567705 24.4958679,27.3567705 C24.8715626,27.3567705 25.1714136,27.0560917 25.1714136,26.6851855 L25.1714136,24.247607 L26.4066916,25.4845657 C26.6704578,25.7486908 27.0963093,25.7504914 27.3619656,25.4844736 C27.6257826,25.2202977 27.6276926,24.7938965 27.3620575,24.5279 L25.1714135,22.2832843 L25.1714135,17.7050048 L29.1517215,20.0061633 L29.9976526,23.0282055 C30.0948818,23.3915635 30.4646093,23.6031077 30.8249901,23.5064126 C31.1878833,23.4090433 31.3992518,23.0388431 31.3027067,22.6780416 L30.8505636,20.9883246 L32.9379115,22.1950951 C33.2540812,22.3778841 33.6699571,22.2686001 33.8565039,21.9450519 C34.0443512,21.6192481 33.934235,21.2088768 33.6134572,21.0234237 L31.5053206,19.8046345 L33.1927418,19.3518762 C33.5530531,19.2551997 33.7675361,18.8868 33.6702991,18.523413 C33.5737354,18.162542 33.2059179,17.947685 32.8430536,18.0450465 L29.8064785,18.8224732 L25.8469593,16.5333335 L29.8272673,14.232175 L32.8638422,15.0096015 C33.2267066,15.106963 33.5945241,14.892106 33.6910878,14.5312349 C33.7883247,14.167848 33.5738418,13.7994483 33.2135304,13.7027718 L31.5261093,13.2500135 L33.6134572,12.043243 C33.9296269,11.860454 34.0430507,11.4451629 33.8565039,11.1216147 C33.6686565,10.7958109 33.2586893,10.6861185 32.9379115,10.8715716 L30.8297749,12.0903608 L31.281918,10.4006438 C31.3784632,10.0398422 31.1670947,9.66964199 30.8042014,9.57227275 C30.4438207,9.47557764 30.0740931,9.68712181 29.9768639,10.0504798 L29.1309329,13.0725222 L25.1714135,15.3616621 Z" id="Combined-Shape" fill="url(#linearGradient-6)" mask="url(#mask-5)"></path>
                    </g>
                    <path d="M20,40 C20,43.865582 16.865638,47 13.0001252,47 C9.13461229,47 6,43.865582 6,40 C6,36.134418 9.13461229,33 13.0001252,33 C16.865638,33 20,36.134418 20,40 Z M16,40.000115 C16,38.3431429 14.6576193,37 12.999885,37 C11.3423807,37 10,38.3431429 10,40.000115 C10,41.657087 11.3423807,43 12.999885,43 C14.6576193,43 16,41.657087 16,40.000115 Z" id="Combined-Shape" fill="url(#linearGradient-3)"></path>
                    <path d="M62,40 C62,43.865582 58.8650514,47 54.9991238,47 C51.1331962,47 48,43.865582 48,40 C48,36.134418 51.1331962,33 54.9991238,33 C58.8650514,33 62,36.134418 62,40 Z M58,40.000115 C58,38.3431429 56.6567782,37 54.9994251,37 C53.3434518,37 52,38.3431429 52,40.000115 C52,41.657087 53.3434518,43 54.9994251,43 C56.6567782,43 58,41.657087 58,40.000115 Z" id="Combined-Shape" fill="url(#linearGradient-3)"></path>
                </g>
            </g>
        </g>
    </g>
</svg>