<?xml version="1.0" encoding="UTF-8"?>
<svg width="80px" height="80px" viewBox="0 0 80 80" version="1.1" xmlns="http://www.w3.org/2000/svg" xmlns:xlink="http://www.w3.org/1999/xlink">
    <!-- Generator: Sketch 50.2 (55047) - http://www.bohemiancoding.com/sketch -->
    <title>安全监测</title>
    <desc>Created with Sketch.</desc>
    <defs>
        <rect id="path-1" x="0" y="0" width="80" height="80"></rect>
        <polygon id="path-3" points="0.0902677749 0.193507556 60.4295888 0.193507556 60.4295888 64 0.0902677749 64"></polygon>
        <linearGradient x1="100%" y1="50%" x2="0%" y2="50%" id="linearGradient-5">
            <stop stop-color="#106AFF" offset="0%"></stop>
            <stop stop-color="#C0CDFF" offset="100%"></stop>
        </linearGradient>
        <polygon id="path-6" points="0 0.0255790507 23.2764387 0.0255790507 23.2764387 19.5106202 0 19.5106202"></polygon>
        <linearGradient x1="100%" y1="50%" x2="0%" y2="50%" id="linearGradient-8">
            <stop stop-color="#B3C9FE" offset="0%"></stop>
            <stop stop-color="#EDF3FF" offset="100%"></stop>
        </linearGradient>
        <polygon id="path-9" points="0.137720638 0.0238411911 23.3259855 0.0238411911 23.3259855 18.3183233 0.137720638 18.3183233"></polygon>
    </defs>
    <g id="安全监测" stroke="none" stroke-width="1" fill="none" fill-rule="evenodd">
        <g>
            <mask id="mask-2" fill="white">
                <use xlink:href="#path-1"></use>
            </mask>
            <g id="Mask"></g>
            <g id="Group" mask="url(#mask-2)">
                <g transform="translate(9.000000, 8.000000)">
                    <g id="Group-3" stroke-width="1" fill="none" transform="translate(1.000000, 0.000000)">
                        <mask id="mask-4" fill="white">
                            <use xlink:href="#path-3"></use>
                        </mask>
                        <g id="Clip-2"></g>
                        <path d="M30.2820954,37.8203861 C34.6290789,37.8589476 38.435144,36.4028972 41.8727693,33.7889918 C43.5989709,32.4764871 44.3870679,30.7220391 44.7417419,28.6944303 C45.3330677,25.3145438 44.6587417,22.0745691 42.7282786,19.3550738 C38.9345623,14.010771 34.8653258,8.86068896 30.8877944,3.64680883 C30.2701515,2.83762271 29.7620283,3.32075205 29.299859,3.91532618 C26.0934197,8.04039874 22.8359656,12.1263041 19.6795288,16.2891306 C17.042147,19.766935 15.0622886,23.5336479 15.6104948,28.105711 C15.8465393,30.0751748 16.4198479,31.9370297 18.0474616,33.2959697 C21.5903553,36.2530927 25.6164722,37.8882221 30.2820954,37.8203861 M31.3084637,55.7846006 C32.6808011,54.5873767 34.0877557,53.399036 35.4345857,52.1475028 C35.6783229,51.9211811 35.7182034,51.439465 35.7825792,51.0641464 C36.7789864,45.2722473 39.5546345,40.6721211 44.925557,37.973017 C47.8791493,36.4887016 51.1333644,35.9508593 54.4240185,35.8052946 C56.4105574,35.7170675 58.4045865,35.7887394 60.4295888,36.0027457 C58.8544071,36.8054713 57.2516935,37.5591369 55.7084972,38.4189981 C49.433075,41.9173956 44.0953526,46.6140265 38.9501501,51.5511117 C37.304317,53.1303167 35.5878324,54.6439066 34.0320848,56.3073009 C32.3595296,58.0960707 31.2590685,60.1901022 31.1598731,62.7381905 C31.1428682,63.170241 30.5474936,63.5798814 30.2189343,64.0000202 C29.8978653,63.576853 29.3279981,63.1712505 29.2960126,62.7274902 C29.0848682,59.8093325 27.7190089,57.4708088 25.6863138,55.5172946 C19.3953038,49.4702032 13.2148257,43.2769413 5.56321977,38.8676038 C3.80118633,37.8524871 1.96586978,36.9637552 0.0902677749,35.9775091 C0.257685245,35.8943293 0.405466083,35.7590612 0.558105469,35.7534082 C5.39114619,35.5781653 10.1841039,35.7689539 14.7365635,37.6415091 C19.8275121,39.7357426 22.6391944,43.780058 24.1787468,48.8542284 C24.4271401,49.6731054 24.4787622,50.5501274 24.6411187,51.3964618 C24.6838334,51.6193514 24.7407189,51.8927142 24.8931558,52.0322221 C26.2737933,53.2950612 27.6775088,54.5336732 29.1026829,55.8047899 C29.1362878,55.5720076 29.2486418,55.1474271 29.2498564,54.7228467 C29.264432,50.5933325 29.2182758,46.4636164 29.2860931,42.3353136 C29.3067419,41.1027584 28.8279725,40.7092694 27.6730551,40.5643104 C19.7681973,39.5728151 14.0541399,35.3562852 10.7203661,28.2617741 C7.38072164,21.1565628 8.06213301,14.1256479 12.3105284,7.50094132 C13.5958169,5.49655016 15.8605076,5.35361009 17.5174749,7.09029148 C18.2764206,7.885547 19.0177541,8.70543344 19.6888411,9.57417792 C20.3117474,10.3807394 20.754685,10.2567773 21.3150376,9.51663849 C23.2116933,7.01074574 25.1583516,4.54220315 27.0533878,2.03489716 C28.891336,-0.397102839 31.461508,-0.429809464 33.3308344,1.9947205 C35.227895,4.45518738 37.1209068,6.91868265 39.0189796,9.37914953 C39.8327864,10.4338372 39.952833,10.4372694 40.8636083,9.41003912 C41.5158684,8.67393817 42.1367504,7.90937035 42.8019666,7.18518107 C44.5597488,5.27063218 46.8082444,5.44950915 48.2380746,7.60087823 C55.9542587,19.2137489 50.4365676,35.1832631 37.1449971,39.5911874 C35.5928934,40.105812 33.9383553,40.3194145 32.3241027,40.6369918 C31.6910744,40.7613577 31.1957049,40.909547 31.1983366,41.7092442 C31.213722,46.2706069 31.205422,50.8325754 31.2159489,55.3945438 C31.2165562,55.6131937 31.3204077,55.8316416 31.3084637,55.7846006" id="Fill-1" fill="url(#linearGradient-5)" mask="url(#mask-4)"></path>
                    </g>
                    <g id="Group-6" stroke-width="1" fill="none" transform="translate(0.000000, 37.000000)">
                        <mask id="mask-7" fill="white">
                            <use xlink:href="#path-6"></use>
                        </mask>
                        <g id="Clip-5"></g>
                        <path d="M23.2764387,17.8410422 C16.367533,21.034548 9.84887542,19.7080406 5.50761221,13.3321322 C2.95409177,9.58095712 1.24988838,5.42273781 0.135831057,0.979189525 C0.0805359422,0.758593781 0.0693973579,0.525847463 -1.9890329e-05,0.0255790507 C9.29194621,3.93115025 16.2897618,10.709075 23.2764387,17.8410422" id="Fill-4" fill="url(#linearGradient-8)" mask="url(#mask-7)"></path>
                    </g>
                    <g id="Group-9" stroke-width="1" fill="none" transform="translate(40.000000, 37.000000)">
                        <mask id="mask-10" fill="white">
                            <use xlink:href="#path-9"></use>
                        </mask>
                        <g id="Clip-8"></g>
                        <path d="M23.3260651,0.0238411911 C21.9285706,5.39277419 20.0216847,10.4484566 16.0995108,14.4681092 C12.3704719,18.2896476 7.84064835,19.0217568 2.83405364,17.7324268 C2.23754267,17.5789777 1.65833629,17.3550571 1.07495294,17.1519801 C0.824732602,17.0648337 0.584855234,16.9483077 0.137720638,16.7593251 C7.0939654,9.96329529 14.1329539,3.54781141 23.3260651,0.0238411911" id="Fill-7" fill="url(#linearGradient-8)" mask="url(#mask-10)"></path>
                    </g>
                    <path d="M23.2882411,28 C23.5726055,28.1585398 23.8732524,28.2835652 24.139008,28.4803732 C28.6113009,31.7954472 33.1066609,31.6773148 37.6498994,28.6893034 C38.0348671,28.435925 38.5468004,28.4732424 39,28.3755515 C38.6646556,28.8031573 38.3901771,29.3695746 37.9844685,29.6372144 C33.2937171,32.7305229 28.591723,32.8724243 23.9252017,29.5535473 C23.5588428,29.2930381 23.3056868,28.7931743 23,28.4043121 C23.0959512,28.2700168 23.1920961,28.134533 23.2882411,28" id="Fill-10" fill="url(#linearGradient-8)"></path>
                    <path d="M40.9997314,22.0699482 C40.9792489,23.2695556 40.1660109,24.0359011 38.9533645,23.9987039 C37.8776164,23.9659451 37.0027219,23.093292 37.0000048,22.0496588 C36.9974968,20.99102 37.9716686,20.0042393 39.0240082,20.0000124 C40.0893061,19.9959968 41.0181238,20.9694626 40.9997314,22.0699482" id="Fill-12" fill="url(#linearGradient-8)"></path>
                    <path d="M23.9262276,20.0008623 C25.0261239,19.967937 25.9760634,20.8822485 25.9994609,21.9955896 C26.0232839,23.1264487 25.2554197,23.9388183 24.1091537,23.9962266 C22.8565353,24.0591225 22.0378347,23.3315989 22.0010367,22.1239141 C21.9661532,20.9700495 22.815696,20.0333655 23.9262276,20.0008623" id="Fill-14" fill="url(#linearGradient-8)"></path>
                </g>
            </g>
        </g>
    </g>
</svg>