<?xml version="1.0" encoding="UTF-8"?>
<svg width="80px" height="80px" viewBox="0 0 80 80" version="1.1" xmlns="http://www.w3.org/2000/svg" xmlns:xlink="http://www.w3.org/1999/xlink">
    <!-- Generator: Sketch 50.2 (55047) - http://www.bohemiancoding.com/sketch -->
    <title>排放监测</title>
    <desc>Created with Sketch.</desc>
    <defs>
        <rect id="path-1" x="0" y="0" width="80" height="80"></rect>
        <linearGradient x1="100%" y1="50%" x2="0%" y2="50%" id="linearGradient-3">
            <stop stop-color="#106AFF" offset="0%"></stop>
            <stop stop-color="#C0CDFF" offset="100%"></stop>
        </linearGradient>
        <linearGradient x1="100%" y1="50%" x2="0%" y2="50%" id="linearGradient-4">
            <stop stop-color="#B3C9FE" offset="0%"></stop>
            <stop stop-color="#EDF3FF" offset="100%"></stop>
        </linearGradient>
        <polygon id="path-5" points="0 0.193664712 45.0841491 0.193664712 45.0841491 7.3442623 0 7.3442623"></polygon>
        <polygon id="path-7" points="0.0378761416 0.0691781287 11.4877331 0.0691781287 11.4877331 3.07931803 0.0378761416 3.07931803"></polygon>
    </defs>
    <g id="排放监测" stroke="none" stroke-width="1" fill="none" fill-rule="evenodd">
        <g>
            <mask id="mask-2" fill="white">
                <use xlink:href="#path-1"></use>
            </mask>
            <g id="Mask"></g>
            <g id="Group" mask="url(#mask-2)">
                <g transform="translate(9.000000, 8.000000)">
                    <path d="M22.4494477,45.1314754 C20.933421,47.3023123 19.4868061,49.3732363 18.0403919,51.4443666 C18.1457133,51.5380867 18.2510347,51.6322196 18.3563561,51.7259396 C21.4931291,49.0869153 24.6301027,46.4480975 28.044523,43.5758053 C26.0975813,42.9697215 24.4836558,42.46706 22.7144564,41.9160935 C24.2645872,39.7033509 25.7214333,37.6235504 27.1780788,35.5439564 C27.0835904,35.4539521 26.9889014,35.3639478 26.8942125,35.2739436 C23.7381807,37.9261795 20.5819483,40.5782089 17.1229921,43.4847688 C19.0984208,44.0956006 20.7113432,44.593927 22.4494477,45.1314754 M41.9672131,56.6557377 L3.14754098,56.6557377 C3.88438974,54.8670061 4.57630136,53.2337176 5.23310583,51.5859789 C7.44244843,46.0426654 9.14243655,40.3362709 10.2961575,34.464318 C10.9068212,31.3564871 11.4552951,28.2350317 11.9839083,25.1113055 C12.1110965,24.3592744 12.4262583,24.1286901 13.1452526,24.1311672 C19.436653,24.1536683 25.7284547,24.1542876 32.0198552,24.1328187 C32.8628278,24.1299287 33.1587309,24.4738441 33.2712743,25.3160858 C34.6667331,35.7514203 37.2606493,45.8424266 41.5308815,55.445428 C41.6705076,55.7594108 41.7664003,56.0940367 41.9672131,56.6557377" id="Fill-1" fill="url(#linearGradient-3)"></path>
                    <path d="M61.9016393,53.4040257 C61.4187344,53.438842 61.0735695,53.4851963 60.7284046,53.4853987 C55.4119681,53.4896496 50.0953278,53.4667761 44.7788913,53.5080698 C43.8436451,53.5151546 43.340772,53.2267054 43.0188354,52.3498199 C42.0436528,49.6940633 40.9225799,47.0878997 40.0350129,44.4048164 C39.7477151,43.5356229 39.8897339,42.4700815 40.0378655,41.52579 C40.4400825,38.9647662 40.9940987,36.4270208 41.3963157,33.8661994 C41.5466886,32.9085481 41.8867596,32.5170669 42.9083989,32.5292121 C46.9550197,32.5765785 51.0026592,32.5826512 55.0486687,32.5249613 C56.0945552,32.5101846 56.4460366,32.9362797 56.5544355,33.8668066 C57.0890947,38.4489988 58.0807817,42.9376728 59.5498721,47.3111695 C60.2220676,49.3127031 61.066438,51.2569518 61.9016393,53.4040257" id="Fill-3" fill="url(#linearGradient-4)"></path>
                    <g id="Group-7" stroke-width="1" fill="none" transform="translate(0.000000, 56.655738)">
                        <mask id="mask-6" fill="white">
                            <use xlink:href="#path-5"></use>
                        </mask>
                        <g id="Clip-6"></g>
                        <path d="M22.5754428,7.34260459 C15.799485,7.34365377 9.02372592,7.34596197 2.24796684,7.34218492 C-0.00220605185,7.34134557 -0.538614516,6.38722098 0.52883634,4.31949639 C1.04636418,3.31731934 1.59588971,2.32962098 2.05101212,1.29659803 C2.41272512,0.475299672 2.94317129,0.109345574 3.78405465,0.216991475 C3.89853086,0.231889836 4.01618696,0.218460328 4.13245185,0.218460328 C16.4062486,0.218460328 28.6800454,0.232309508 40.9538422,0.193699672 C42.0783324,0.189712787 42.7510788,0.525870164 43.1833458,1.64450623 C43.5609582,2.62150295 44.127377,3.5160341 44.6049574,4.45022426 C45.5849611,6.36728656 45.0644521,7.33463082 43.018985,7.3379882 C36.2044709,7.34764066 29.3899569,7.34155541 22.5754428,7.34260459" id="Fill-5" fill="url(#linearGradient-3)" mask="url(#mask-6)"></path>
                    </g>
                    <path d="M32.5245902,23.0819672 L12.5901639,23.0819672 C12.751786,21.6303587 12.7820538,20.2335279 13.1171334,18.9353838 C13.2416969,18.4530359 14.0767767,17.8998248 14.5940451,17.8919994 C19.8831426,17.8146151 25.1735983,17.8361349 30.4634719,17.8485251 C31.4264136,17.8509162 32.0075159,18.3682609 32.105304,19.5179401 C32.2038683,20.6763141 32.3738334,21.8272975 32.5245902,23.0819672" id="Fill-8" fill="url(#linearGradient-3)"></path>
                    <path d="M29.847079,1.37427484 C32.5545334,1.2309129 35.3026164,2.36454584 38.1040121,3.25440033 C41.6597136,4.38361242 45.2491072,5.280835 49.0144922,5.03789862 C51.9229098,4.84990712 54.1683865,3.54028214 55.7047444,0.893664995 C55.8464493,0.649886547 55.9629842,0.287587143 56.1685057,0.209485412 C56.5583427,0.0614921058 57.1118834,-0.103763578 57.3939058,0.083806886 C57.6358941,0.244852234 57.7968232,1.00313373 57.6469926,1.29912034 C56.1431376,4.26719663 53.8808148,6.22205559 50.7086083,6.87213145 C46.6752722,7.69862038 42.8137657,6.69950768 38.9607814,5.62018807 C35.6240782,4.68570402 32.428089,3.16703586 28.8412719,3.34365945 C24.2750068,3.56870191 20.2646607,6.85297442 19.1441024,11.5525513 C18.9276804,12.4594577 18.7887502,13.391205 18.6738008,14.3197946 C18.581445,15.0669187 18.4310198,15.797412 17.5752415,15.7338359 C16.7220396,15.6704704 16.7727759,14.8724012 16.7973513,14.2151678 C17.02725,8.03565777 21.5820202,1.10460282 29.847079,1.37427484" id="Fill-10" fill="url(#linearGradient-3)"></path>
                    <path d="M43.0163934,53.5083312 L44.5261531,53.5083312 C49.7620544,53.5085435 54.9981597,53.5072701 60.2342651,53.5098168 C61.4977374,53.5106657 63.2048126,55.4442347 62.9191438,56.7065405 C62.8301784,57.0991541 62.184975,57.5719882 61.7530029,57.6224974 C60.6162451,57.7547127 59.4570418,57.6791611 58.3068168,57.6795855 C54.3796867,57.6814955 50.4521486,57.6418097 46.5262429,57.7042035 C45.3856082,57.7222425 44.6398085,57.4030582 44.2290576,56.2545043 C43.9327782,55.4253468 43.5222313,54.6401195 43.0163934,53.5083312" id="Fill-12" fill="url(#linearGradient-4)"></path>
                    <path d="M48.6686239,14.2341325 C46.0735818,13.653068 43.484171,13.0397343 40.8818886,12.4998785 C38.2755837,11.9589326 35.6716923,11.3251035 33.0386387,11.038823 C30.4299204,10.7549408 29.0421973,11.678539 28.3012739,13.6362793 C28.1701441,13.9831737 28.223843,14.4521679 28.0255393,14.7201335 C27.7250671,15.1261155 27.2785823,15.4049828 26.8940422,15.7377049 C26.6615483,15.307739 26.2311531,14.8784272 26.2295441,14.4473711 C26.2200915,12.0919342 28.0774281,9.83439515 30.1960187,9.22956481 C32.6012042,8.54253511 34.9540987,8.96857638 37.2854735,9.47202023 C40.2308654,10.1082477 43.1159216,11.0924597 46.0717717,11.6460517 C49.6050353,12.3082253 53.0351247,11.8368327 55.982729,9.35973197 C56.7091719,8.74923272 57.2745182,7.90281911 57.8724458,7.12726702 C58.2851426,6.59155392 58.6340845,5.93940989 59.3772203,6.52657935 C60.0564001,7.06360066 59.805001,7.68849026 59.4397684,8.30683879 C57.4796598,11.6266465 54.5053067,13.1271665 51.0661669,13.7629579 C50.2982935,13.9048989 49.5064869,13.8953054 48.7255407,13.9550471 C48.7064344,14.0479302 48.6877303,14.1410313 48.6686239,14.2341325" id="Fill-14" fill="url(#linearGradient-3)"></path>
                    <path d="M48.7755915,31.4585874 C46.8398935,31.4585874 44.9036096,31.4246939 42.9686929,31.474475 C42.1362061,31.4960821 41.8650911,31.1442252 42.0002579,30.3049372 C42.0264319,30.1430958 42.0281898,29.9768058 42.0485039,29.8139051 C42.3627862,27.2968887 42.3784125,27.2805774 44.7367997,27.2797301 C47.6215951,27.2782473 50.5061953,27.2778236 53.3907954,27.2820603 C55.0567458,27.2843905 55.1098749,27.3358662 55.3985693,29.0421924 C55.8075856,31.4585874 55.8075856,31.4585874 53.557996,31.4583756 C51.9639262,31.4581638 50.3698565,31.4583756 48.7755915,31.4585874" id="Fill-16" fill="url(#linearGradient-4)"></path>
                    <path d="M46.4430145,25.1803279 C45.180905,21.9785109 48.4116687,18.4359106 51.8746149,18.9320212 C53.5443699,19.171221 55.1512847,19.8214374 56.8067578,20.1968285 C57.7634393,20.4136351 58.7574577,20.4914005 59.7394385,20.563873 C60.7836474,20.6404169 61.5301813,20.0797732 62.1802106,19.317591 C62.3483286,19.1201239 62.6892574,19.0696374 62.9508197,18.9517679 C62.9214398,19.2618116 62.9932572,19.6355741 62.8443177,19.8702953 C62.2406025,20.8205802 61.3679801,21.3600521 60.2109443,21.4718144 C57.9219681,21.6935069 55.8202884,20.9675608 53.7226893,20.2436506 C50.0746908,18.9843398 47.5049738,20.4669716 46.8478036,24.2294322 C46.790064,24.5598333 46.5815487,24.8639734 46.4430145,25.1803279" id="Fill-18" fill="url(#linearGradient-4)"></path>
                    <g id="Group-22" stroke-width="1" fill="none" transform="translate(51.409836, 22.032787)">
                        <mask id="mask-8" fill="white">
                            <use xlink:href="#path-7"></use>
                        </mask>
                        <g id="Clip-21"></g>
                        <path d="M0.34979304,3.07931803 C-0.401585735,1.43099016 0.278319931,0.102727869 1.60087616,0.132039344 C2.66892332,0.155842623 3.78779131,0.400957377 4.77950601,0.795777049 C6.94718619,1.65859672 8.94883819,1.84744918 10.7945857,0.143055738 C10.9280156,0.0199081967 11.252378,0.0923016393 11.4878546,0.0738098361 C11.423873,0.343711475 11.4390585,0.671055738 11.282749,0.87387541 C10.3667594,2.06167869 7.76902571,2.69059672 6.06298487,2.15197377 C5.16764751,1.86948197 4.28628082,1.54508852 3.40187702,1.23151475 C1.83027852,0.6744 1.43829002,0.820957377 0.675775209,2.28200656 C0.571501409,2.48187541 0.503470348,2.69944918 0.34979304,3.07931803" id="Fill-20" fill="url(#linearGradient-3)" mask="url(#mask-8)"></path>
                    </g>
                </g>
            </g>
        </g>
    </g>
</svg>