<?xml version="1.0" encoding="UTF-8"?>
<svg width="64px" height="64px" viewBox="0 0 64 64" version="1.1" xmlns="http://www.w3.org/2000/svg" xmlns:xlink="http://www.w3.org/1999/xlink">
    <!-- Generator: Sketch 50.2 (55047) - http://www.bohemiancoding.com/sketch -->
    <title>数据服务</title>
    <desc>Created with Sketch.</desc>
    <defs>
        <rect id="path-1" x="0" y="0" width="64" height="64"></rect>
        <linearGradient x1="100%" y1="50%" x2="0%" y2="50%" id="linearGradient-3">
            <stop stop-color="#106AFF" offset="0%"></stop>
            <stop stop-color="#C0CDFF" offset="100%"></stop>
        </linearGradient>
        <linearGradient x1="100%" y1="50%" x2="0%" y2="50%" id="linearGradient-4">
            <stop stop-color="#B3C9FE" offset="0%"></stop>
            <stop stop-color="#EDF3FF" offset="100%"></stop>
        </linearGradient>
    </defs>
    <g id="数据服务" stroke="none" stroke-width="1" fill="none" fill-rule="evenodd">
        <g>
            <mask id="mask-2" fill="white">
                <use xlink:href="#path-1"></use>
            </mask>
            <g id="Mask"></g>
            <g id="数据中心" mask="url(#mask-2)" fill-rule="nonzero">
                <g transform="translate(2.000000, 2.000000)">
                    <rect id="Rectangle-path" fill="#000000" opacity="0" x="0" y="0" width="60" height="60"></rect>
                    <path d="M54.8475,42.8925 L51.7725,42.8925 C51.7875,42.7875 51.8025,42.6825 51.8025,42.5775 L51.8025,15.8325 C51.8025,14.3625 50.61,13.17 49.14,13.17 L12.345,13.17 C10.875,13.17 9.6825,14.3625 9.6825,15.8325 L9.6825,42.57 C9.6825,42.675 9.705,42.78 9.7125,42.885 L6.6375,42.885 C5.4975,42.885 4.5825,43.8075 4.5825,44.94 C4.5825,46.08 5.505,46.995 6.6375,46.995 L54.8325,46.995 C55.9725,46.995 56.8875,46.0725 56.8875,44.94 C56.9025,43.815 55.98,42.8925 54.8475,42.8925 Z M27.84,19.68 L33.6525,19.68 L33.6525,37.1175 L27.84,37.1175 L27.84,19.68 Z M25.3275,37.1175 L19.515,37.1175 L19.515,26.34 L25.3275,26.34 L25.3275,37.1175 Z M34.41,45.75 L27.0825,45.75 L27.0825,44.715 L34.41,44.715 L34.41,45.75 Z M41.9775,37.1175 L36.165,37.1175 L36.165,24.45 L41.9775,24.45 L41.9775,37.1175 Z" id="Shape" fill="url(#linearGradient-3)"></path>
                </g>
            </g>
            <path d="M56.8475,44.8925 L53.7725,44.8925 C53.7875,44.7875 53.8025,44.6825 53.8025,44.5775 L11.6825,44.57 C11.6825,44.675 11.705,44.78 11.7125,44.885 L8.6375,44.885 C7.4975,44.885 6.5825,45.8075 6.5825,46.94 C6.5825,48.08 7.505,48.995 8.6375,48.995 L56.8325,48.995 C57.9725,48.995 58.8875,48.0725 58.8875,46.94 C58.9025,45.815 57.98,44.8925 56.8475,44.8925 Z" id="Path" fill="url(#linearGradient-4)" mask="url(#mask-2)"></path>
        </g>
    </g>
</svg>