<?xml version="1.0" encoding="UTF-8"?>
<svg width="80px" height="80px" viewBox="0 0 80 80" version="1.1" xmlns="http://www.w3.org/2000/svg" xmlns:xlink="http://www.w3.org/1999/xlink">
    <!-- Generator: Sketch 50.2 (55047) - http://www.bohemiancoding.com/sketch -->
    <title>环境监测</title>
    <desc>Created with Sketch.</desc>
    <defs>
        <rect id="path-1" x="0" y="0" width="80" height="80"></rect>
        <polygon id="path-3" points="2.64588125e-05 0.107123514 39.2631349 0.107123514 39.2631349 62.7692308 2.64588125e-05 62.7692308"></polygon>
        <linearGradient x1="100%" y1="50%" x2="0%" y2="50%" id="linearGradient-5">
            <stop stop-color="#106AFF" offset="0%"></stop>
            <stop stop-color="#C0CDFF" offset="100%"></stop>
        </linearGradient>
        <polygon id="path-6" points="0.0161270319 0.123221086 25.7614924 0.123221086 25.7614924 45.4381058 0.0161270319 45.4381058"></polygon>
        <linearGradient x1="100%" y1="50%" x2="0%" y2="50%" id="linearGradient-8">
            <stop stop-color="#B3C9FE" offset="0%"></stop>
            <stop stop-color="#EDF3FF" offset="100%"></stop>
        </linearGradient>
    </defs>
    <g id="环境监测" stroke="none" stroke-width="1" fill="none" fill-rule="evenodd">
        <g>
            <mask id="mask-2" fill="white">
                <use xlink:href="#path-1"></use>
            </mask>
            <g id="Mask"></g>
            <g id="Group" mask="url(#mask-2)">
                <g transform="translate(10.000000, 8.000000)">
                    <g id="Group-3">
                        <mask id="mask-4" fill="white">
                            <use xlink:href="#path-3"></use>
                        </mask>
                        <g id="Clip-2"></g>
                        <path d="M34.1626132,42.7039274 C33.9432131,42.677592 33.7240118,42.6512567 33.5046117,42.6251193 C33.3528416,47.7759585 31.2242822,51.8838779 27.1736342,55.0862967 C27.7351633,55.2015387 28.1829147,55.1959944 28.4715363,54.9795692 C32.1750825,52.2026743 34.1077134,48.4573115 34.453025,43.8856522 C34.4820662,43.5009184 34.2652519,43.0981657 34.1626132,42.7039274 M11.2198813,40.0436605 C11.2254508,40.1753372 11.2312193,40.307212 11.2367888,40.4386908 C13.4819108,41.0919264 15.7268339,41.744766 18.1650996,42.4540385 C15.9633405,45.5402254 13.8608385,48.4872111 11.7581377,51.4341967 C11.8613731,51.516965 11.9644096,51.6001293 12.0676451,51.6828975 C16.5198968,47.9878294 20.9721486,44.2925632 25.6981035,40.3703773 C23.0762418,39.6106122 20.839673,38.9623268 18.3984236,38.2550344 C20.5989893,35.1809262 22.6730468,32.282849 24.7471043,29.3855639 C24.6353156,29.290321 24.523527,29.1950781 24.4115394,29.1002312 C20.0143863,32.748173 15.6170343,36.3959167 11.2198813,40.0436605 M39.2631198,41.8693144 C39.1457616,55.3734115 28.4755145,64.3622822 16.4717601,62.53346 C8.34003046,61.2939162 1.59511671,54.4995925 0.256437607,46.5003768 C-0.426030148,42.423743 0.336798135,38.5892756 1.56707009,34.7999546 C5.32730629,23.2213086 11.2912908,12.697661 17.4623428,2.28014676 C17.6976559,1.88274031 17.937743,1.48731395 18.191356,1.10119408 C19.0385231,-0.188248289 20.2125029,-0.246463286 21.0290375,1.06218607 C22.4974073,3.4155372 23.909485,5.8053222 25.2857585,8.21352215 C29.3419761,15.3115935 33.1433871,22.5397575 36.0952441,30.1738425 C37.7354741,34.4154188 39.2686894,38.7005573 39.2631198,41.8693144" id="Fill-1" fill="url(#linearGradient-5)" mask="url(#mask-4)"></path>
                    </g>
                    <g id="Group-6" transform="translate(33.230769, 0.000000)">
                        <mask id="mask-7" fill="white">
                            <use xlink:href="#path-6"></use>
                        </mask>
                        <g id="Clip-5"></g>
                        <path d="M21.3456262,31.8664082 C21.2503821,31.7344835 21.0145105,31.4092646 20.7790459,31.0834594 C20.6032107,31.4121962 20.3681531,31.7243204 20.2631404,32.0726017 C19.9898224,32.9778984 19.8677146,33.934597 19.5160441,34.8076456 C18.5977933,37.0880866 16.8241773,38.5849925 14.5399472,39.5919202 C14.2576746,39.7160272 14.1007661,40.1033973 13.8858563,40.3684194 C14.232439,40.4221665 14.6372264,40.6166333 14.9168533,40.5093346 C18.8983821,38.9829166 21.0102367,35.6072071 21.3456262,31.8664082 M7.74627547,43.0108228 C7.71106772,39.6831926 7.01932695,36.2807073 5.74248625,33.035359 C4.05373519,28.7434079 2.15231302,24.5282662 0.308485039,20.2933847 C0.00586117505,19.5985812 -0.12174149,19.0181124 0.220770927,18.2670209 C3.00706772,12.1601764 6.38741902,6.36956038 10.1992179,0.806245758 C10.8472034,-0.139507956 11.6518939,-0.113709343 12.3055777,0.949897128 C14.8332094,5.06301697 17.3984911,9.15932862 19.7673827,13.3566848 C21.9518915,17.2270632 23.6886716,21.3044168 24.8680296,25.5727192 C26.3569308,30.9611114 26.3036104,36.1478053 22.2239884,40.6176106 C18.5548521,44.6382854 13.8742561,46.0515412 8.43252138,45.2003824 C8.12196051,45.1519123 7.78148322,44.6603706 7.65815433,44.3093531 C7.54215191,43.9794435 7.69560073,43.561975 7.74627547,43.0108228" id="Fill-4" fill="url(#linearGradient-8)" mask="url(#mask-7)"></path>
                    </g>
                </g>
            </g>
        </g>
    </g>
</svg>