<?xml version="1.0" encoding="UTF-8"?>
<svg width="80px" height="80px" viewBox="0 0 80 80" version="1.1" xmlns="http://www.w3.org/2000/svg" xmlns:xlink="http://www.w3.org/1999/xlink">
    <!-- Generator: Sketch 50.2 (55047) - http://www.bohemiancoding.com/sketch -->
    <title>生产检测</title>
    <desc>Created with Sketch.</desc>
    <defs>
        <rect id="path-1" x="0" y="0" width="80" height="80"></rect>
        <polygon id="path-3" points="4.04414836e-05 0.168062438 63.9279243 0.168062438 63.9279243 63.438576 4.04414836e-05 63.438576"></polygon>
        <linearGradient x1="100%" y1="50%" x2="0%" y2="50%" id="linearGradient-5">
            <stop stop-color="#B3C9FE" offset="0%"></stop>
            <stop stop-color="#EDF3FF" offset="100%"></stop>
        </linearGradient>
        <linearGradient x1="100%" y1="50%" x2="0%" y2="50%" id="linearGradient-6">
            <stop stop-color="#106AFF" offset="0%"></stop>
            <stop stop-color="#C0CDFF" offset="100%"></stop>
        </linearGradient>
    </defs>
    <g id="生产检测" stroke="none" stroke-width="1" fill="none" fill-rule="evenodd">
        <g>
            <mask id="mask-2" fill="white">
                <use xlink:href="#path-1"></use>
            </mask>
            <g id="Mask"></g>
            <g id="Group" mask="url(#mask-2)">
                <g transform="translate(8.000000, 8.000000)">
                    <g id="Group-3" stroke-width="1" fill="none">
                        <mask id="mask-4" fill="white">
                            <use xlink:href="#path-3"></use>
                        </mask>
                        <g id="Clip-2"></g>
                        <path d="M58.4499685,31.8689093 C58.6266246,17.6858802 47.0062839,5.64535467 32.2652871,5.486458 C17.2802019,5.3245595 5.46866877,17.4133144 5.43757729,31.7282237 C5.40688959,45.9234602 16.9067003,57.9898014 31.7692366,58.1016695 C46.7615899,58.2141379 58.5535394,46.0841579 58.4499685,31.8689093 M32.052694,0.170223565 C49.3286562,0.0225337097 64.2693249,14.3058238 63.9220694,32.4366547 C63.5921767,49.6193087 49.2678864,63.5786017 31.8415142,63.4375158 C13.9639117,63.2926277 -0.280630915,49.0633705 0.00423974763,31.2333226 C0.284870662,13.665234 14.9144227,-0.0296980685 32.052694,0.170223565" id="Fill-1" fill="url(#linearGradient-5)" mask="url(#mask-4)"></path>
                    </g>
                    <path d="M26.4514391,31.3278552 C26.4277286,34.1310684 28.5130368,36.4477538 31.3799809,36.8035846 C34.0852073,37.1396912 36.7574011,35.2601238 37.4545304,32.6720826 C37.7475679,31.5830732 38.2130638,30.5038261 38.7952883,29.5331612 C39.9949992,27.5326592 41.3272456,25.6096589 42.6015331,23.6525897 C43.6634393,22.0218648 44.7373021,20.3979138 45.7617174,18.744277 C45.9341758,18.4665457 45.8818911,18.0541326 45.9333652,17.7036812 C45.5714254,17.7516964 45.2070538,17.7873592 44.8489644,17.8548993 C44.7439897,17.8746234 44.6602937,17.9901787 44.5607906,18.052738 C41.3775038,20.056627 38.1891506,22.0533436 35.0109301,24.065202 C33.5232482,25.0071773 32.0623165,25.8985473 30.250591,26.2649374 C28.0795602,26.7038485 26.4704885,29.0615759 26.4514391,31.3278552 M32.1510789,41.7170774 C29.3923519,41.7170774 26.6332196,41.7085104 23.8744926,41.7208629 C22.34324,41.727836 21.5174256,42.4387006 21.4191384,43.9447055 C21.340914,45.140504 21.3392928,46.3502489 21.4282579,47.5446529 C21.5344485,48.9735544 22.3710036,49.7081278 23.8345698,49.7127101 C29.2733941,49.7306411 34.7122183,49.7316373 40.1510426,49.7123117 C41.7258658,49.7069324 42.5537068,48.8968496 42.6197719,47.3523927 C42.6627346,46.346862 42.6489541,45.3375458 42.629702,44.3308197 C42.5946429,42.4847235 41.812399,41.7236521 39.954671,41.7182728 C37.3534061,41.7112996 34.7521412,41.716679 32.1510789,41.7170774 M53.3942697,18.0511441 C52.4322718,18.6044152 51.4879048,19.1461306 50.5445511,19.68944 C49.8905871,20.0661902 49.4157691,20.6690703 49.9477355,21.2803183 C50.2134147,21.5851453 51.1225199,21.6102487 51.5999724,21.4201801 C52.5743322,21.0318743 53.4534446,20.4128563 54.5700674,19.775708 C56.4498846,23.0614644 57.3634482,26.5145768 57.4915254,30.4062018 C56.2441909,30.4062018 55.1514813,30.4056041 54.0589744,30.4066002 C53.3442142,30.4069987 52.6454637,30.4727457 52.6647158,31.4109355 C52.6831573,32.3262135 53.3681273,32.4082977 54.0879539,32.4047115 C54.6801084,32.4021215 55.272263,32.4067038 55.8644176,32.4075008 C57.5365146,32.4098916 57.6060249,32.417064 57.4173541,34.0983942 C57.0997955,36.9235231 56.3199835,39.6307058 55.0748781,42.2091838 C54.7419179,42.8991289 54.3453243,42.9136729 53.7730298,42.5805547 C53.0280742,42.1468237 52.2936566,41.6917748 51.5264091,41.2976912 C50.9425633,40.9974466 50.2650914,40.8121595 49.875996,41.5397597 C49.5164881,42.2119731 49.8916004,42.7285851 50.5034124,43.0840174 C51.4489953,43.6331045 52.3974154,44.1760154 53.5756449,44.8550027 C48.6527773,52.0405526 41.932978,55.9421392 33.3100563,56.4862455 C23.9970982,57.0739839 14.7779688,52.1025142 10.5775623,44.7765047 C11.5047037,44.2403678 12.4340743,43.6930738 13.3727669,43.1619177 C14.0591556,42.7738111 14.579368,42.2494289 14.0871218,41.4791928 C13.6177755,40.7454164 12.9058524,41.0679752 12.301336,41.3917294 C11.6102863,41.7617057 10.9368675,42.164954 10.2632461,42.5658115 C9.69155958,42.9065005 9.27328201,42.8923549 8.9470093,42.2155593 C7.59753725,39.4171276 6.82056235,36.4730565 6.51941872,33.3966943 C6.44403148,32.6276536 6.75571312,32.3537077 7.52904025,32.3945506 C8.43429504,32.4415697 9.36062583,32.4971558 10.2450073,32.3541062 C10.6578132,32.287363 11.2220015,31.8161762 11.315425,31.4334489 C11.4874781,30.7287606 10.9220738,30.4173588 10.2283897,30.4121788 C9.28098286,30.4048071 8.32871238,30.457604 7.38900643,30.3717344 C7.08360706,30.3442402 6.55224864,29.9507543 6.56278664,29.7465402 C6.74355389,26.2633435 7.64698479,22.9728055 9.40054864,19.7786965 C10.4196949,20.3419292 11.330016,20.8489781 12.2441876,21.3490538 C12.8863977,21.7003022 13.63034,22.0573283 14.1134668,21.2691612 C14.5901087,20.4909557 14.0022098,19.9920754 13.3221035,19.6149267 C12.4334663,19.1224219 11.5620547,18.6004305 10.5739145,18.0278338 C10.7518446,17.6602483 10.8679652,17.2958505 11.0807518,16.9987936 C12.8215484,14.5675491 14.9275273,12.4969169 17.4061867,10.7839085 C18.0666356,10.3280626 18.4784283,10.2784535 18.8760351,11.0735938 C19.2740473,11.8693318 19.7636591,12.6246254 20.2555,13.3701566 C20.6002142,13.8925465 21.0604411,14.2738791 21.7281856,13.8301864 C22.3369578,13.425145 22.3460772,12.9079353 21.9863666,12.3148176 C21.5233025,11.5507577 21.1364363,10.7380849 20.6332468,10.0021169 C20.2176037,9.39365823 20.3079873,9.04778914 20.9672203,8.73957515 C23.8487556,7.39295695 26.879444,6.59323429 30.0590831,6.40037641 C30.3221278,6.38423851 30.803228,6.89068968 30.8640242,7.21245153 C30.9918988,7.88805182 30.8938143,8.60290107 30.9140797,9.30081549 C30.9383982,10.1238485 30.9240097,11.1596626 32.0479281,11.1178236 C33.1157112,11.07718 33.1280731,10.0698562 33.1288837,9.23028689 C33.129897,8.53177477 33.0470116,7.81652705 33.1789392,7.1423214 C33.2377089,6.84108057 33.7483966,6.38543391 34.0276536,6.40296644 C37.1667619,6.60060592 40.1591488,7.39574621 43.0029904,8.72523035 C43.6310147,9.01870107 43.7911113,9.37393413 43.3734416,9.99733528 C42.8763317,10.7396787 42.4835885,11.5489646 42.0205245,12.3140206 C41.6606112,12.9087322 41.6713519,13.4317197 42.2843798,13.8273972 C42.9488818,14.256745 43.4182282,13.8819871 43.7607132,13.3548157 C44.2697797,12.5718286 44.6744794,11.7181137 45.2362359,10.9769656 C45.4261226,10.7263301 46.1031891,10.5095642 46.3121253,10.6444452 C49.0422781,12.408258 51.3207154,14.6396715 53.1387232,17.3131838 C53.2631526,17.49608 53.2905109,17.7423325 53.3942697,18.0511441" id="Fill-4" fill="url(#linearGradient-6)"></path>
                    <path d="M31.4124687,35.1998044 C29.6266172,35.1805165 28.1708914,33.7064276 28.2039417,31.9500867 C28.2373698,30.1813327 29.7104706,28.7786662 31.5116197,28.8002457 C33.3161682,28.8223981 34.7452649,30.2749075 34.7112703,32.0513002 C34.6768979,33.8374323 33.2292931,35.2189013 31.4124687,35.1998044" id="Fill-6" fill="url(#linearGradient-6)"></path>
                </g>
            </g>
        </g>
    </g>
</svg>