<?xml version="1.0" encoding="UTF-8"?>
<svg width="64px" height="64px" viewBox="0 0 64 64" version="1.1" xmlns="http://www.w3.org/2000/svg" xmlns:xlink="http://www.w3.org/1999/xlink">
    <!-- Generator: Sketch 50.2 (55047) - http://www.bohemiancoding.com/sketch -->
    <title>系统集成</title>
    <desc>Created with Sketch.</desc>
    <defs>
        <rect id="path-1" x="0" y="0" width="64" height="64"></rect>
        <linearGradient x1="100%" y1="50%" x2="0%" y2="50%" id="linearGradient-3">
            <stop stop-color="#106AFF" offset="0%"></stop>
            <stop stop-color="#C0CDFF" offset="100%"></stop>
        </linearGradient>
    </defs>
    <g id="系统集成" stroke="none" stroke-width="1" fill="none" fill-rule="evenodd">
        <g>
            <mask id="mask-2" fill="white">
                <use xlink:href="#path-1"></use>
            </mask>
            <g id="Mask"></g>
            <g id="数据图谱" mask="url(#mask-2)" fill-rule="nonzero">
                <g transform="translate(2.000000, 2.000000)">
                    <rect id="Rectangle-path" fill="#000000" opacity="0" x="0" y="0" width="60" height="60"></rect>
                    <path d="M49.851,43.494 C51.442158,45.2739973 51.3662371,47.9867969 49.678017,49.675017 C47.9897969,51.3632371 45.2769973,51.439158 43.497,49.848 C37.0263885,54.2451002 28.8192082,55.2138596 21.5026431,52.4441706 C14.1860779,49.6744817 8.67778016,43.513722 6.741,35.934 C4.69221081,35.5814371 3.15160032,33.8713296 3.01402344,31.7969838 C2.87644655,29.7226381 4.17771733,27.8240484 6.162,27.204 C7.11592613,19.0742321 12.1470512,11.9910524 19.5091333,8.41294562 C26.8712155,4.83483887 35.5491755,5.2551522 42.531,9.528 C43.6314569,7.09832086 46.2037355,5.6868032 48.8442527,6.06365227 C51.4847698,6.44050135 53.5594986,8.51523019 53.9363477,11.1557473 C54.3131968,13.7962645 52.9016791,16.3685431 50.472,17.469 C52.7853853,21.2388492 54.0067387,25.576939 54,30 C54,35.004 52.47,39.648 49.851,43.494 Z M39.48,37.359 L44.559,42.438 C45.379623,42.0449988 46.3004225,41.9110643 47.199,42.054 C49.6794391,38.5244614 51.0071437,34.3139506 51,30 C51,25.515 49.593,21.36 47.199,17.946 C46.4054237,17.8405126 45.6412259,17.5762573 44.952,17.169 L39.48,22.641 C41.058,24.675 42,27.228 42,30 C42,32.772 41.058,35.325 39.48,37.359 Z M37.359,39.48 C34.1672702,41.9553091 29.9447933,42.6598396 26.1223145,41.3548682 C22.2998358,40.0498968 19.3897081,36.9103377 18.378,33 L11.745,33 C11.379,34.032 10.647,34.89 9.705,35.424 C11.4776816,42.0473048 16.3708146,47.3888894 22.8136874,49.7340879 C29.2565602,52.0792865 36.4384698,51.1330039 42.054,47.199 C41.9142892,46.3004039 42.0480847,45.3805596 42.438,44.559 L37.359,39.48 Z M37.359,20.52 L42.831,15.048 C42.4226914,14.359004 42.1574114,13.5947934 42.051,12.801 C36.0297373,8.58225368 28.2408574,7.81909096 21.5152538,10.7888858 C14.7896502,13.7586806 10.1065344,20.029047 9.168,27.321 C10.368,27.801 11.313,28.779 11.745,30 L18,30 C17.9994909,25.4184484 20.6077851,21.2364227 24.7224702,19.2214832 C28.8371554,17.2065436 33.7400834,17.7103634 37.359,20.52 Z" id="Shape" fill="url(#linearGradient-3)"></path>
                </g>
            </g>
        </g>
    </g>
</svg>