<?xml version="1.0" encoding="UTF-8"?>
<svg width="80px" height="80px" viewBox="0 0 80 80" version="1.1" xmlns="http://www.w3.org/2000/svg" xmlns:xlink="http://www.w3.org/1999/xlink">
    <!-- Generator: Sketch 50.2 (55047) - http://www.bohemiancoding.com/sketch -->
    <title>缺陷检测</title>
    <desc>Created with Sketch.</desc>
    <defs>
        <rect id="path-1" x="0" y="0" width="80" height="80"></rect>
        <linearGradient x1="100%" y1="50%" x2="0%" y2="50%" id="linearGradient-3">
            <stop stop-color="#106AFF" offset="0%"></stop>
            <stop stop-color="#C0CDFF" offset="100%"></stop>
        </linearGradient>
    </defs>
    <g id="缺陷检测" stroke="none" stroke-width="1" fill="none" fill-rule="evenodd">
        <g>
            <mask id="mask-2" fill="white">
                <use xlink:href="#path-1"></use>
            </mask>
            <g id="Mask"></g>
            <g id="Group" mask="url(#mask-2)" fill="url(#linearGradient-3)">
                <g transform="translate(8.000000, 9.000000)">
                    <path d="M13.4719449,28.16 L13.4719449,39.9845653 C12.3169234,39.3331223 11.3193958,38.8538086 10.4135556,38.2363841 C9.522562,37.6281263 9.00995477,37.7735704 8.47969219,38.7171237 C6.52997908,42.1876157 4.514259,45.6198115 2.53705971,49.0744146 C1.2351778,51.349576 2.13580161,53.0034426 4.72913272,53.0124055 C12.2697756,53.0386832 19.8106191,53.0160722 27.351262,53.0346092 C28.1983178,53.0368499 29.4654909,52.7651098 29.4396097,54.0720697 C29.4163368,55.2564003 28.1965121,55.0201046 27.3755381,55.0219379 C19.9129399,55.0359934 12.4505424,55.0386416 4.98794419,55.0235675 C2.38458163,55.0180675 1.04498146,54.1606806 0.255907404,52.1138706 C-0.260913031,50.7722811 0.0580871597,49.5533209 0.739624045,48.3736755 C2.79145735,44.8200726 4.81861327,41.2515994 6.9023466,37.717552 C7.41254627,36.8522206 7.39489091,36.3466292 6.43508154,35.8675192 C5.43655075,35.3692611 4.51746907,34.7062071 3.35703064,33.9871347 C6.80002578,32.0036763 10.0269434,30.1446806 13.4719449,28.16" id="Fill-1"></path>
                    <path d="M45.9043857,61.44 C42.4168743,59.3365559 39.2419817,57.4219064 35.84,55.3700082 C39.26475,53.3052753 42.4390487,51.3918678 45.9075535,49.3006375 C45.9075535,50.8060252 45.9481405,51.9572163 45.8950804,53.1036461 C45.8507317,54.0577622 46.2164106,54.3730407 47.1115022,54.3657953 C51.2383082,54.3328805 55.3655101,54.3757319 59.4923161,54.3399189 C61.7964693,54.3198388 62.7410572,52.5908786 61.5806653,50.4988201 C57.9151651,43.8901844 54.2134336,37.3032848 50.525363,30.7085188 C50.3309415,30.3609465 49.9989201,30.0274509 49.9694203,29.6664228 C49.9294272,29.1747705 50.1194931,28.663038 50.2107644,28.16 C50.6621709,28.3264373 51.2650362,28.358317 51.5331083,28.6878794 C52.0736082,29.3523864 52.4375053,30.1754642 52.8649556,30.9387156 C56.2449609,36.9757926 59.6087315,43.0225991 63.0107132,49.0460133 C63.9467878,50.7029335 64.4439289,52.3509522 63.4714251,54.161682 C62.5482195,55.8811197 61.0150212,56.3806385 59.2626531,56.3847787 C55.3284869,56.3943012 51.3943206,56.3880909 47.4599563,56.3928521 C45.9204225,56.3947152 45.9099293,56.408792 45.9049797,58.0052649 C45.9020099,59.0049235 45.9043857,60.0043751 45.9043857,61.44" id="Fill-3"></path>
                    <path d="M47.36,11.9420333 L47.36,23.2906989 C44.0183638,21.3887832 40.8059389,19.5605354 37.2947632,17.5620687 C38.5662101,16.8155542 39.5429189,16.2195872 40.5418985,15.6633647 C41.2425286,15.2733465 41.449387,14.8987845 40.9696601,14.1022884 C38.8376741,10.5620154 36.7887526,6.97115846 34.6868624,3.4122176 C33.5032952,1.4079297 31.5639224,1.41134211 30.3811577,3.42285629 C26.6067441,9.84139509 22.8507891,16.270974 19.0868087,22.695334 C18.9487693,22.9307902 18.7960833,23.1574142 18.6622574,23.3950784 C18.3145507,24.0121221 17.87134,24.6123044 17.1053017,24.1642753 C16.3220086,23.706009 16.6925881,22.9863923 17.0252469,22.4141114 C19.3735213,18.3730174 21.7434646,14.3449708 24.1065862,10.3125081 C25.6228123,7.72550137 27.1322166,5.13488148 28.6568694,2.55289296 C30.6604467,-0.840847204 34.3628311,-0.857507785 36.3965041,2.54225428 C38.318622,5.75513682 40.199609,8.99290987 42.073975,12.2342961 C43.3010808,14.3566131 43.1174965,14.1376168 44.9914611,13.025774 C45.626683,12.6492047 46.2767521,12.2969238 46.9280251,11.9484567 C47.0159048,11.9014859 47.1507339,11.9420333 47.36,11.9420333" id="Fill-5"></path>
                    <path d="M29.3416491,32.384497 C31.988492,33.1227448 34.3889781,33.7922711 37.12,34.5543071 C32.1566368,38.5033533 27.3955163,42.2917783 22.6346089,46.08 C22.5583151,46.012905 22.4820212,45.9460134 22.4057274,45.8795284 C23.9625057,43.8089375 25.5182185,41.73794 27.0769149,39.668569 C27.5847592,38.994773 28.1083738,38.3313463 28.6104641,37.6530773 C29.2870926,36.7389594 29.1801107,36.5088034 28.0540304,36.2217183 C26.1358152,35.7325351 24.2235671,35.2211903 22.3128108,34.706389 C22.1742884,34.6689785 22.066241,34.5280791 21.76,34.2960932 C26.5287925,30.5033985 31.2208649,26.7716993 35.9127242,23.04 C36.0000999,23.1066883 36.0872624,23.1733766 36.174425,23.2400649 C33.9540179,26.2115581 31.7336108,29.1836611 29.3416491,32.384497" id="Fill-7"></path>
                </g>
            </g>
        </g>
    </g>
</svg>