<?xml version="1.0" encoding="UTF-8"?>
<svg width="64px" height="64px" viewBox="0 0 64 64" version="1.1" xmlns="http://www.w3.org/2000/svg" xmlns:xlink="http://www.w3.org/1999/xlink">
    <!-- Generator: Sketch 50.2 (55047) - http://www.bohemiancoding.com/sketch -->
    <title>能力开放</title>
    <desc>Created with Sketch.</desc>
    <defs>
        <rect id="path-1" x="0" y="0" width="64" height="64"></rect>
        <linearGradient x1="100%" y1="50%" x2="0%" y2="50%" id="linearGradient-3">
            <stop stop-color="#106AFF" offset="0%"></stop>
            <stop stop-color="#C0CDFF" offset="100%"></stop>
        </linearGradient>
        <linearGradient x1="100%" y1="50%" x2="0%" y2="50%" id="linearGradient-4">
            <stop stop-color="#B3C9FE" offset="0%"></stop>
            <stop stop-color="#EDF3FF" offset="100%"></stop>
        </linearGradient>
    </defs>
    <g id="能力开放" stroke="none" stroke-width="1" fill="none" fill-rule="evenodd">
        <g>
            <mask id="mask-2" fill="white">
                <use xlink:href="#path-1"></use>
            </mask>
            <g id="Mask"></g>
            <g id="研究创新能力" mask="url(#mask-2)">
                <g transform="translate(2.000000, 2.000000)">
                    <rect id="Rectangle-path" stroke="none" fill="#000000" fill-rule="nonzero" opacity="0" x="0" y="0" width="60" height="60"></rect>
                    <path d="M12.80625,29.8575 C12.80625,23.71875 16.07625,18.045 21.38625,14.9775 C26.6931657,11.9081825 33.2355843,11.9081825 38.5425,14.9775 C43.852296,18.0511465 47.1209011,23.7222549 47.11875,29.8575 C47.11875,35.9925 43.84875,41.66625 38.5425,44.7375 C33.2355843,47.8068175 26.6931657,47.8068175 21.38625,44.7375 C16.0750108,41.6648052 12.8048733,35.9935177 12.80625,29.8575 Z" id="Path" stroke="none" fill="url(#linearGradient-3)" fill-rule="evenodd"></path>
                    <path d="M36.7137214,20.6856806 C39.9866038,22.5802323 42.0013253,26.0758226 42,29.8575" id="Path" stroke="#FFFFFF" stroke-width="2" fill="none" stroke-linecap="round"></path>
                    <path d="M33.18,55.68 C34.3729351,55.68 35.34,56.6470649 35.34,57.84 C35.34,59.0329351 34.3729351,60 33.18,60 L26.74875,60 C25.5558149,60 24.58875,59.0329351 24.58875,57.84 C24.58875,56.6470649 25.5558149,55.68 26.74875,55.68 L33.18,55.68 Z M29.9625,10.72125 C29.3899766,10.7212509 28.8409569,10.4935605 28.4364736,10.0883737 C28.0319904,9.68318701 27.8052543,9.13377251 27.80625,8.56125 L27.80625,2.11875 C27.8736033,0.977215046 28.8189798,0.0859739659 29.9625,0.0859739659 C31.1060202,0.0859739659 32.0513967,0.977215046 32.11875,2.11875 L32.11875,8.56125 C32.1187518,9.75272213 31.1539703,10.7191815 29.9625,10.72125 Z M13.32,16.37625 L8.7675,11.82 C8.02119765,10.963214 8.06473998,9.67512602 8.86719789,8.87069403 C9.66965581,8.06626205 10.9576329,8.01955502 11.81625,8.76375 L16.36875,13.32375 C17.1029279,14.1819017 17.0536277,15.460371 16.2555445,16.2594359 C15.4574613,17.0585007 14.1790535,17.1093724 13.32,16.37625 Z M8.59125,27.84 C9.78418506,27.84 10.75125,28.8070649 10.75125,30 C10.75125,31.1929351 9.78418506,32.16 8.59125,32.16 L2.16,32.16 C0.96706494,32.16 1.4609241e-16,31.1929351 0,30 C-1.4609241e-16,28.8070649 0.96706494,27.84 2.16,27.84 L8.595,27.84 L8.59125,27.84 Z M57.79875,27.8025 C58.9916851,27.8025 59.95875,28.7695649 59.95875,29.9625 C59.95875,31.1554351 58.9916851,32.1225 57.79875,32.1225 L51.3675,32.1225 C50.1745649,32.1225 49.2075,31.1554351 49.2075,29.9625 C49.2075,28.7695649 50.1745649,27.8025 51.3675,27.8025 L57.79875,27.8025 Z M46.61625,16.34625 C45.7722899,17.1891746 44.4047996,17.1883351 43.561875,16.344375 C42.7189504,15.5004149 42.7197899,14.1329246 43.56375,13.29 L48.11625,8.7375 C48.6621965,8.19222337 49.4575734,7.97962596 50.2027701,8.17979118 C50.9479667,8.37995639 51.52977,8.96247436 51.7290201,9.7079162 C51.9282703,10.453358 51.7146965,11.2484734 51.16875,11.79375 L46.62,16.34625 L46.61625,16.34625 Z M36.96375,49.1925 C38.1566851,49.1925 39.12375,50.1595649 39.12375,51.3525 C39.12375,52.5454351 38.1566851,53.5125 36.96375,53.5125 L22.9575,53.5125 C21.7645649,53.5125 20.7975,52.5454351 20.7975,51.3525 C20.7975,50.1595649 21.7645649,49.1925 22.9575,49.1925 L36.9675,49.1925 L36.96375,49.1925 Z" id="Shape" stroke="none" fill="url(#linearGradient-4)" fill-rule="nonzero"></path>
                </g>
            </g>
        </g>
    </g>
</svg>