<?xml version="1.0" encoding="UTF-8"?>
<svg width="80px" height="80px" viewBox="0 0 80 80" version="1.1" xmlns="http://www.w3.org/2000/svg" xmlns:xlink="http://www.w3.org/1999/xlink">
    <!-- Generator: Sketch 50.2 (55047) - http://www.bohemiancoding.com/sketch -->
    <title>能源监测</title>
    <desc>Created with Sketch.</desc>
    <defs>
        <rect id="path-1" x="0" y="0" width="80" height="80"></rect>
        <linearGradient x1="100%" y1="50%" x2="0%" y2="50%" id="linearGradient-3">
            <stop stop-color="#B3C9FE" offset="0%"></stop>
            <stop stop-color="#EDF3FF" offset="100%"></stop>
        </linearGradient>
        <linearGradient x1="100%" y1="50%" x2="0%" y2="50%" id="linearGradient-4">
            <stop stop-color="#106AFF" offset="0%"></stop>
            <stop stop-color="#C0CDFF" offset="100%"></stop>
        </linearGradient>
    </defs>
    <g id="能源监测" stroke="none" stroke-width="1" fill="none" fill-rule="evenodd">
        <g>
            <mask id="mask-2" fill="white">
                <use xlink:href="#path-1"></use>
            </mask>
            <g id="Mask"></g>
            <g id="Group" mask="url(#mask-2)">
                <g transform="translate(8.000000, 9.000000)">
                    <path d="M34.5656502,51.4238108 C34.5656502,48.9351869 34.5427,46.4463603 34.57743,43.9585474 C34.5904283,43.0354006 34.2262715,42.6694265 33.311716,42.714641 C32.4038627,42.7590445 31.491135,42.750326 30.5824694,42.7164658 C29.7341242,42.6850386 29.3606248,43.0254655 29.3636713,43.8938683 C29.3809347,48.8707106 29.3809347,53.8477556 29.3659054,58.8245978 C29.3636713,59.6465696 29.7197041,59.9586106 30.5164621,59.9269807 C31.3461222,59.8939316 32.1835001,59.8610851 33.0076765,59.9356992 C34.1767153,60.0415377 34.6355163,59.6443392 34.5908345,58.4142202 C34.5063453,56.0867871 34.5662595,53.7542852 34.5656502,51.4238108 M0,37.9661017 L64,37.9661017 C63.3718143,39.487378 62.930886,40.8683473 62.222273,42.0956277 C61.9852563,42.5062081 61.0660294,42.6927434 60.4571381,42.6961902 C53.2964708,42.7361331 46.1351942,42.7217374 38.9741207,42.7217374 C38.5786866,42.7217374 38.1781751,42.7616803 37.7882247,42.7140327 C36.7432795,42.5864994 36.4195394,43.0262765 36.4282727,44.0574922 C36.4705173,48.9151141 36.476001,53.7737497 36.4240076,58.6313716 C36.412634,59.7195616 36.8228944,59.95415 37.8160493,59.9411736 C41.4157789,59.893526 45.0163209,59.9208981 48.6168629,59.9231284 C48.9722865,59.9233311 49.3904677,59.8318883 49.6666825,59.9857799 C49.9865637,60.1640022 50.3787482,60.5680944 50.3752955,60.8699977 C50.3718428,61.1731175 49.9715344,61.5668691 49.6484036,61.7422528 C49.3689392,61.8937114 48.9529921,61.8042961 48.5973654,61.8042961 C37.5195245,61.8063236 26.4416836,61.8061209 15.3640457,61.8061209 C15.284634,61.8061209 15.2054253,61.809365 15.1266228,61.8053099 C14.434664,61.7706386 13.5570725,61.9523078 13.5379811,60.883785 C13.5190929,59.8166816 14.3765776,59.9255614 15.0847844,59.9243449 C18.4477004,59.9188705 21.8104133,59.9399571 25.1733293,59.916843 C27.704148,59.899406 27.4679437,60.2957934 27.4752552,57.6688901 C27.4880505,53.2056282 27.4825668,48.7425689 27.4787079,44.2795097 C27.4778955,42.7298477 27.4703808,42.7251843 25.8823485,42.724576 C18.4842582,42.7221429 11.0857618,42.724576 3.68746846,42.7207237 C1.87887039,42.7197099 1.73629477,42.6090052 1.11217103,40.9222803 C0.77482332,40.0098795 0.427523745,39.101331 0,37.9661017" id="Fill-1" fill="url(#linearGradient-3)"></path>
                    <path d="M0,35.5813695 C0.81865753,32.9686998 1.58206576,30.421229 2.44629388,27.9061612 C2.56465644,27.5615103 3.18409386,27.1630507 3.5760816,27.1583375 C7.85144998,27.1059034 12.1282298,27.1367355 16.4044048,27.1186683 C17.2119721,27.1153298 17.4424464,27.4570349 17.3287216,28.1785434 C16.9849257,30.3660455 16.6540348,32.5551187 16.3245554,34.7445847 C16.22797,35.38538 15.9614022,35.798372 15.2010185,35.7966045 C10.4148966,35.7846252 5.62857298,35.7930696 0.842451025,35.7818758 C0.588384895,35.7808939 0.334520405,35.6640465 0,35.5813695 Z M64,35.6524797 C63.4905328,35.7020631 63.1185856,35.7696768 62.7464374,35.7702647 C58.2460771,35.7769281 53.7447116,35.7430233 49.2451556,35.7963303 C48.1835982,35.8088731 47.769832,35.4004473 47.635931,34.4552277 C47.3363627,32.3429373 47.0030176,30.2353505 46.6700746,28.1275677 C46.5653262,27.4637778 46.7631619,27.1164982 47.517109,27.118654 C51.8222472,27.129825 56.1273854,27.0992519 60.4311162,27.1611821 C60.8273908,27.1668655 61.4371832,27.6509402 61.57028,28.0366322 C62.4163091,30.4830713 63.1565846,32.9641992 64,35.6524797 Z M10.1990413,26.0278447 C8.17218779,26.0266615 6.14513779,26.0126606 4.1182843,26.0337606 C3.29665598,26.0420428 3.11507632,25.6766383 3.34774983,24.95352 C4.07367544,22.6973986 4.75990507,20.4278679 5.54242694,18.1922549 C5.66564171,17.8400625 6.20527131,17.404259 6.55860489,17.3987375 C10.229108,17.3401702 13.9009868,17.369158 17.572276,17.3559459 C18.303311,17.3533824 18.5147609,17.7107018 18.4190582,18.3705202 C18.0887168,20.6455724 17.7566069,22.9204275 17.4356982,25.1968601 C17.3254534,25.9775597 16.7732469,26.0306055 16.1652301,26.0296195 C14.1765005,26.0270559 12.1877709,26.0288307 10.1990413,26.0278447 Z M53.75522,26.019189 C51.7681366,26.019189 49.7806602,25.9989168 47.7937732,26.0290299 C46.9807861,26.0412326 46.6263568,25.6832215 46.5198708,24.9024464 C46.2365631,22.8201171 45.9310544,20.7405433 45.598826,18.665693 C45.4510816,17.7428157 45.6952921,17.3426857 46.7145712,17.3562661 C50.191476,17.402715 53.6699526,17.3926773 57.1472504,17.3598088 C57.9690786,17.3523297 58.3738039,17.6373215 58.6085839,18.4415178 C59.249661,20.6385918 59.9734513,22.8114572 60.6650208,24.993573 C60.9076595,25.7597835 60.5958638,26.0412326 59.831601,26.0337535 C57.8062061,26.0136781 55.7808113,26.0270617 53.75522,26.0270617 L53.75522,26.019189 Z M39.5522832,35.7784328 C37.6214811,35.7774534 35.6898349,35.7506193 33.759666,35.7892056 C32.84502,35.8074215 32.5288826,35.4662167 32.5428112,34.6392555 C32.5791101,32.5042775 32.5765776,30.3681243 32.5434443,28.2333422 C32.5299378,27.3781757 32.9262703,27.1129684 33.8069389,27.1202155 C37.2988015,27.1492042 40.7912972,27.1527299 44.2831597,27.1188445 C45.1650945,27.1100303 45.4947385,27.3907114 45.5992032,28.2123841 C45.864269,30.2921269 46.1930688,32.3671688 46.5921449,34.4284999 C46.8126813,35.5666978 46.3260238,35.8258332 45.2212311,35.7941023 C43.3330591,35.7400423 41.4419325,35.7792163 39.5522832,35.7784328 Z M24.3418553,35.7870485 C22.3729501,35.7876376 20.4040449,35.7685913 18.4355608,35.7962771 C17.5644924,35.808451 17.2537124,35.4878065 17.3846779,34.6866864 C17.7539924,32.4203802 18.0609825,30.144649 18.4831464,27.8869824 C18.5385225,27.5906857 19.1175503,27.1673487 19.4601243,27.1624398 C23.1096841,27.1072647 26.7607178,27.1296489 30.4111198,27.1186531 C31.1377471,27.1166896 31.4565283,27.4337997 31.4548438,28.0949202 C31.4495799,30.3516051 31.4428421,32.6084863 31.457581,34.8651712 C31.463266,35.6725747 30.9423515,35.7935282 30.2485709,35.7899938 C28.2796657,35.7801761 26.3107605,35.7866558 24.3418553,35.7870485 Z M38.5284673,26.0182721 C36.9309936,26.0182721 35.3329185,25.9901445 33.7362467,26.0298772 C32.9105479,26.050137 32.5260637,25.8054463 32.5429024,24.9283755 C32.5841974,22.7881184 32.5739739,20.6466812 32.5479139,18.5062274 C32.5378909,17.6822648 32.8536169,17.3463067 33.7190071,17.3561416 C36.5623458,17.3889899 39.4070878,17.3673533 42.2514289,17.3693203 C42.816328,17.369517 43.337727,17.3880065 43.4419667,18.1421417 C43.7510776,20.375043 44.0762253,22.6057806 44.4398616,24.8302239 C44.5922119,25.7607961 44.247419,26.0607586 43.3200864,26.0320409 C41.7244169,25.98267 40.1259409,26.0184688 38.5284673,26.0182721 Z M25.3863883,26.0249651 C23.7553166,26.0249651 22.1240452,26.0048527 20.4933729,26.0334439 C19.7282651,26.0468523 19.4332861,25.7648832 19.5501194,25.0037639 C19.8984222,22.7314481 20.1852128,20.4490762 20.5946284,18.1879997 C20.653744,17.8626508 21.2516904,17.4032187 21.6091801,17.3955286 C24.5587697,17.3322335 27.5107558,17.3661486 30.4623425,17.3570783 C31.1557527,17.3551065 31.4461381,17.6883427 31.4457387,18.3429841 C31.4445404,20.5667933 31.4369513,22.7907997 31.4575219,25.0144117 C31.4645119,25.7601508 31.1233988,26.0312749 30.3956377,26.0212187 C28.7262207,25.9985429 27.0562046,26.0141202 25.3863883,26.0141202 L25.3863883,26.0249651 Z M57.4915254,16.1590937 C56.9444732,16.1992479 56.5676015,16.2496831 56.1909326,16.250459 C52.7203861,16.2566664 49.2496368,16.2275692 45.7801046,16.2708271 C44.7361009,16.2836299 44.3316433,15.9565769 44.2365126,14.9296383 C44.0805307,13.24549 43.772218,11.5706529 43.4434187,9.90687268 C43.2651247,9.00563415 43.5113692,8.66791219 44.4904649,8.67819321 C47.6453965,8.71078212 50.8005309,8.70341082 53.9550569,8.67993904 C54.6771577,8.67450756 55.1260367,8.85413452 55.3501719,9.5776859 C56.0166953,11.7299118 56.7408245,13.8660372 57.4915254,16.1590937 Z M6.50847458,16.0330033 C7.26228036,13.7343793 7.96784094,11.4939285 8.75889934,9.28178354 C8.85661113,9.00790078 9.40562928,8.71879147 9.74965622,8.71410638 C13.0767428,8.66998841 16.4048472,8.69243782 19.7325445,8.67799211 C20.4973429,8.67447829 20.6903237,9.02703158 20.5826371,9.68645849 C20.2650738,11.635067 19.9947379,13.5912887 19.626283,15.5307222 C19.5711165,15.8196363 19.0896824,16.2473463 18.8018397,16.2502745 C14.881154,16.2891217 10.9598575,16.2649154 7.03856106,16.248908 C6.93189235,16.2485176 6.82481651,16.1651619 6.50847458,16.0330033 Z M54.2372881,7.43252017 C53.8329618,7.4939907 53.5515152,7.57335772 53.2700686,7.57433035 C50.3097673,7.58288954 47.349273,7.55643387 44.3895504,7.59300494 C43.5299712,7.6035094 43.1746424,7.23001758 43.0679667,6.425843 C42.8193137,4.55721673 42.5137541,2.69578796 42.3063825,0.8228821 C42.2791831,0.576416403 42.6862101,0.0465248819 42.8989829,0.043023396 C45.5950061,-0.00346855463 48.2954661,-0.0398451018 50.9868595,0.0871810228 C51.4727841,0.110329735 52.1583642,0.793703051 52.3487602,1.32028761 C53.0515086,3.26283414 53.5848876,5.2676293 54.2372881,7.43252017 Z M9.76271186,7.41582437 C10.4040099,5.27668944 11.002606,3.25612492 11.6179367,1.24101192 C11.8687623,0.419196267 12.4431222,0.00527063911 13.2960063,0.00468654838 C15.8061861,0.00235018548 18.3167506,0.00702291128 20.8269304,1.38225751e-05 C21.5676739,-0.00232254033 21.7927245,0.291280398 21.6580788,1.06247485 C21.3518561,2.81357885 21.1227662,4.57928511 20.8925221,6.3432391 C20.8007707,7.04628964 20.6457358,7.59767129 19.7755402,7.59319326 C16.6659948,7.57722811 13.5562571,7.58618417 10.4467118,7.57703341 C10.2691719,7.57625463 10.092209,7.4960395 9.76271186,7.41582437 Z M25.9909756,16.2608578 C24.5423388,16.2616358 23.0934955,16.2402405 21.6454785,16.2703884 C20.8857343,16.2859485 20.5027637,16.0780258 20.6364109,15.2897087 C20.9722848,13.3088991 21.250114,11.3183644 21.6355634,9.34650198 C21.6872045,9.0825626 22.2219999,8.72020516 22.5403158,8.71378659 C25.154596,8.66185452 27.7703221,8.69064084 30.3854285,8.6779982 C31.162111,8.67410816 31.4603901,9.02382296 31.4543998,9.7255866 C31.4401468,11.5819148 31.4360155,13.4384375 31.4574982,15.2949602 C31.4657608,16.0480724 31.0765933,16.2805025 30.3360596,16.2678598 C28.8882491,16.2425746 27.4394058,16.2602743 25.9909756,16.2608578 Z M37.9926747,16.2541276 C36.5396146,16.2541276 35.0861392,16.2321764 33.6341173,16.2632577 C32.86336,16.2797697 32.5334211,16.0027569 32.5425573,15.2721501 C32.5653976,13.4222251 32.559376,11.5721058 32.5448413,9.72198643 C32.5390274,9.03178547 32.8048057,8.67201846 33.6023485,8.67804048 C36.1849666,8.69707782 38.7686229,8.65997442 41.3502028,8.71533814 C41.7029821,8.72310848 42.296623,9.08889751 42.3533085,9.3651333 C42.7472003,11.2898479 43.0090335,13.2380679 43.3557912,15.1719127 C43.5167117,16.0688048 43.101433,16.2949219 42.2295555,16.2692798 C40.8184385,16.2271256 39.4052451,16.2578185 37.9926747,16.2578185 L37.9926747,16.2541276 Z M37.4393478,7.58336782 C36.1843482,7.58433938 34.9289191,7.56238222 33.674993,7.59230613 C32.8807682,7.61134862 32.5322884,7.33464959 32.5425947,6.59859909 C32.5681456,4.7440938 32.5638513,2.88861697 32.5447418,1.03391737 C32.537871,0.326041977 32.8438375,-0.00448123017 33.6560982,0.00290259221 C35.83093,0.0229166371 38.0066206,0.0242768149 40.1814523,0.000182236598 C40.9061099,-0.00797883024 41.2404187,0.257450153 41.3391868,0.900619945 C41.6320558,2.81030959 41.9517641,4.71669594 42.2800608,6.62133349 C42.4000856,7.32027057 42.0891806,7.59832978 41.32931,7.58783698 C40.0328707,7.56976604 38.7360019,7.58278489 37.4393478,7.58336782 Z M26.4384755,7.58185348 C25.2336461,7.58360239 24.0281759,7.55911763 22.8248416,7.59176398 C21.9807562,7.61469415 21.5762274,7.37140114 21.7253093,6.53814203 C22.0725975,4.60054253 22.347267,2.6510893 22.7496599,0.723594632 C22.8094636,0.436190194 23.3957526,0.0444340426 23.7496619,0.0345235447 C25.9489401,-0.0270770008 28.1520628,0.014702549 30.3536904,0.00440340415 C31.1524959,0.000516934401 31.4624068,0.348550301 31.4564265,1.05025241 C31.4397669,2.90196093 31.4359224,4.75405809 31.4574944,6.60596092 C31.4660378,7.35468932 31.0619362,7.59817665 30.3013622,7.58573995 C29.0143029,7.56533598 27.7263892,7.58029889 26.4384755,7.58185348 Z" id="Combined-Shape" fill="url(#linearGradient-4)"></path>
                </g>
            </g>
        </g>
    </g>
</svg>